<?xml version="1.0" standalone="no"?>
<!DOCTYPE svg PUBLIC "-//W3C//DTD SVG 20010904//EN"
 "http://www.w3.org/TR/2001/REC-SVG-20010904/DTD/svg10.dtd">
<svg version="1.0" xmlns="http://www.w3.org/2000/svg"
 width="2048.000000pt" height="2048.000000pt" viewBox="0 0 2048.000000 2048.000000"
 preserveAspectRatio="xMidYMid meet">
<metadata>
Created by potrace 1.14, written by Peter Selinger 2001-2017
</metadata>
<g transform="translate(0.000000,2048.000000) scale(0.100000,-0.100000)"
fill="#000000" stroke="none">
<path d="M17459 19336 c-2 -2 -29 -6 -59 -10 -30 -3 -66 -8 -80 -11 -14 -3
-38 -8 -55 -11 -40 -7 -225 -69 -284 -95 -140 -63 -341 -167 -353 -184 -4 -5
-8 -6 -8 -1 0 5 -8 2 -17 -6 -10 -8 -40 -27 -68 -43 -27 -16 -81 -49 -120 -73
-38 -25 -72 -44 -74 -43 -2 2 -8 -4 -13 -13 -5 -9 -13 -16 -19 -16 -8 0 -64
-35 -79 -50 -3 -3 -32 -23 -65 -45 -33 -22 -65 -44 -72 -50 -7 -5 -44 -32 -83
-60 -60 -42 -132 -96 -210 -158 -9 -7 -33 -25 -55 -41 -22 -17 -42 -33 -45
-36 -3 -3 -25 -21 -50 -40 -25 -19 -52 -41 -61 -49 -8 -9 -28 -25 -43 -36 -15
-11 -38 -29 -50 -40 -21 -18 -94 -81 -169 -145 -26 -22 -64 -55 -156 -138 -87
-77 -464 -435 -490 -465 -9 -10 -72 -76 -141 -147 -69 -71 -142 -148 -163
-172 -21 -24 -71 -79 -110 -122 -40 -44 -82 -90 -94 -104 -13 -14 -23 -29 -23
-34 0 -5 -4 -6 -10 -3 -5 3 -10 3 -10 -2 0 -4 -14 -24 -31 -43 -17 -19 -42
-51 -57 -70 -15 -19 -40 -49 -57 -67 -16 -18 -41 -47 -55 -64 -14 -17 -29 -37
-35 -43 -5 -6 -28 -34 -50 -61 -22 -28 -44 -55 -50 -61 -5 -6 -17 -21 -25 -34
-8 -12 -24 -32 -35 -44 -43 -49 -64 -76 -82 -103 -19 -29 -30 -44 -73 -97 -29
-34 -169 -228 -185 -254 -5 -9 -16 -21 -22 -25 -7 -4 -13 -13 -13 -19 0 -9
-14 -28 -60 -85 -6 -7 -10 -17 -10 -23 0 -6 -7 -13 -15 -16 -8 -4 -13 -9 -11
-13 2 -3 -6 -19 -18 -34 l-23 -28 -84 21 c-46 11 -95 23 -109 26 -14 3 -50 11
-80 19 -57 15 -98 23 -140 31 -37 6 -65 12 -65 14 0 1 -9 3 -20 5 -11 1 -81
14 -155 28 -140 27 -149 29 -265 47 -38 6 -83 13 -100 16 -16 3 -46 7 -65 9
-19 2 -35 5 -35 6 0 0 -13 3 -30 4 -36 4 -106 13 -155 20 -19 2 -62 7 -95 11
-33 3 -71 7 -85 10 -14 2 -54 6 -90 9 -36 3 -90 8 -120 11 -137 13 -285 24
-420 29 -58 2 -163 7 -235 10 -151 6 -572 7 -790 1 -143 -4 -241 -10 -420 -22
-44 -4 -104 -7 -132 -8 -29 0 -53 -3 -53 -6 0 -3 -15 -5 -32 -4 -18 1 -62 -2
-98 -7 -99 -12 -212 -23 -242 -24 -16 0 -28 -2 -28 -5 0 -4 -10 -6 -22 -7 -13
-1 -45 -4 -73 -7 -27 -4 -66 -8 -85 -10 -38 -5 -89 -13 -134 -22 -16 -4 -45
-8 -65 -9 -20 -2 -36 -4 -36 -6 0 -1 -13 -3 -30 -4 -16 -2 -30 -4 -30 -5 0 -2
-17 -5 -65 -14 -19 -3 -46 -8 -60 -10 -70 -13 -88 -17 -120 -22 -19 -3 -38 -8
-41 -10 -4 -2 -24 -6 -45 -10 -22 -3 -68 -13 -104 -21 -36 -8 -78 -17 -95 -20
-16 -3 -37 -9 -46 -14 -9 -4 -19 -6 -22 -3 -3 3 -12 2 -19 -2 -7 -5 -22 -10
-32 -11 -11 -2 -71 -17 -135 -34 -64 -17 -123 -32 -131 -34 -8 -2 -44 -13 -80
-24 -36 -11 -73 -21 -82 -21 -9 0 -32 21 -50 48 -17 26 -38 53 -45 60 -7 7
-13 17 -13 21 0 4 -8 17 -18 29 -44 52 -52 63 -52 67 0 5 -104 147 -125 171
-5 7 -19 24 -30 40 -26 36 -121 159 -157 204 -16 19 -32 40 -36 45 -16 22
-138 172 -166 206 -17 19 -51 59 -76 89 -25 29 -49 58 -55 64 -5 6 -39 45 -75
86 -75 86 -61 70 -170 191 -236 259 -601 622 -824 821 -27 23 -61 54 -76 68
-24 22 -55 49 -150 130 -14 12 -47 40 -74 63 -27 23 -55 48 -62 55 -7 6 -15
12 -18 12 -6 0 -44 30 -75 60 -9 8 -49 40 -89 70 -39 30 -72 58 -72 62 0 5 -5
8 -11 8 -6 0 -23 10 -38 23 -15 12 -38 30 -52 40 -13 9 -64 47 -114 83 -49 37
-100 71 -112 77 -13 6 -23 14 -23 19 0 5 -4 7 -9 4 -5 -3 -11 1 -15 9 -3 8
-12 15 -21 15 -8 0 -15 4 -15 9 0 5 -9 13 -20 16 -11 3 -26 12 -33 19 -50 50
-595 349 -657 361 -3 0 -32 11 -65 24 -33 13 -64 24 -70 25 -5 1 -35 10 -65
19 -87 25 -287 60 -301 51 -4 -2 -10 -1 -12 3 -6 9 -106 8 -207 -1 -82 -7
-114 -13 -170 -33 -25 -8 -49 -16 -55 -17 -11 -2 -77 -35 -115 -57 -14 -8 -29
-20 -33 -26 -4 -7 -13 -13 -20 -14 -13 0 -130 -133 -128 -143 1 -4 -5 -14 -14
-22 -8 -9 -15 -21 -15 -29 0 -7 -4 -15 -9 -17 -19 -7 -216 -440 -225 -493 -1
-5 -4 -14 -7 -20 -4 -5 -18 -48 -33 -95 -15 -47 -31 -94 -36 -105 -10 -23 -58
-194 -63 -222 -1 -10 -7 -24 -11 -32 -5 -8 -10 -26 -12 -40 -1 -14 -5 -36 -8
-48 -3 -13 -8 -33 -11 -45 -4 -19 -13 -59 -21 -90 -1 -5 -2 -9 -4 -10 -1 -2
-3 -12 -5 -23 -2 -11 -6 -31 -9 -45 -21 -89 -49 -245 -50 -272 -1 -16 -4 -28
-7 -28 -3 0 -6 -6 -6 -12 0 -7 -3 -31 -6 -53 -6 -38 -32 -220 -42 -295 -5 -38
-14 -122 -20 -182 -1 -20 -6 -41 -10 -47 -3 -6 -1 -11 5 -11 6 0 8 -5 5 -10
-11 -18 -12 -33 -30 -290 -7 -103 -16 -301 -15 -325 1 -11 1 -24 1 -30 -7 -92
-5 -205 4 -205 7 0 7 -3 -1 -8 -8 -6 -11 -154 -4 -247 1 -5 -1 -22 -3 -37 -2
-16 -1 -28 2 -28 3 0 6 -53 7 -118 0 -64 4 -178 8 -252 5 -74 11 -164 13 -200
2 -36 5 -81 7 -100 4 -31 9 -89 21 -220 5 -62 17 -164 21 -190 2 -14 6 -50 10
-80 3 -30 8 -66 10 -80 3 -14 7 -41 9 -60 2 -19 7 -55 11 -80 3 -25 7 -54 9
-65 1 -11 8 -54 14 -95 6 -41 13 -89 14 -105 2 -17 6 -35 9 -40 3 -6 8 -32 12
-60 6 -48 11 -78 21 -130 3 -14 7 -37 10 -52 3 -16 10 -50 15 -78 6 -27 12
-61 14 -75 3 -14 5 -25 6 -25 1 0 3 -11 6 -25 2 -14 17 -88 34 -165 16 -77 31
-149 33 -160 1 -11 5 -24 9 -30 3 -5 9 -28 12 -50 4 -22 11 -58 17 -80 6 -22
13 -47 14 -55 2 -8 11 -44 20 -80 8 -36 17 -72 19 -80 2 -8 9 -35 16 -60 7
-25 13 -51 13 -57 0 -7 3 -13 6 -13 4 0 8 -11 9 -25 1 -14 9 -48 17 -75 8 -28
22 -72 30 -99 8 -28 15 -58 15 -68 0 -11 4 -23 9 -29 6 -5 12 -22 15 -38 5
-28 42 -157 53 -186 8 -19 7 -18 17 -60 5 -19 13 -41 18 -47 6 -7 8 -13 5 -13
-3 0 1 -16 9 -35 8 -20 12 -40 9 -45 -4 -6 -1 -10 5 -10 6 0 9 -4 5 -9 -3 -5
-1 -12 5 -16 5 -3 10 -14 10 -24 0 -9 11 -45 24 -80 27 -68 39 -121 27 -121
-4 0 -8 -6 -8 -12 -1 -7 -31 -84 -67 -170 -36 -87 -62 -158 -59 -158 3 0 -1
-8 -10 -17 -8 -10 -16 -21 -16 -26 -1 -18 -14 -63 -21 -72 -7 -9 -88 -242 -96
-275 -2 -8 -13 -42 -24 -75 -11 -32 -22 -68 -24 -80 -2 -11 -9 -33 -16 -50
-19 -50 -108 -386 -146 -550 -22 -99 -56 -260 -68 -325 -2 -14 -11 -63 -20
-110 -21 -115 -31 -178 -41 -255 -1 -11 -4 -20 -5 -20 -1 0 -4 -16 -5 -35 -2
-19 -6 -53 -8 -75 -14 -110 -19 -142 -23 -165 -2 -14 -7 -56 -10 -95 -3 -38
-8 -86 -10 -105 -2 -19 -6 -64 -9 -100 -9 -121 -14 -163 -19 -167 -3 -3 -29 3
-58 12 -53 18 -79 26 -88 27 -3 0 -29 9 -59 19 -69 24 -324 95 -371 104 -8 1
-22 5 -30 8 -8 4 -55 16 -105 27 -49 11 -99 23 -110 25 -11 3 -33 8 -50 11
-44 7 -102 23 -170 46 -157 52 -319 -52 -329 -214 -10 -164 105 -268 349 -313
17 -3 77 -16 135 -30 58 -14 116 -28 130 -30 14 -2 66 -16 115 -30 50 -14 101
-28 115 -31 36 -8 43 -10 60 -17 32 -12 166 -50 178 -50 6 0 12 -4 12 -9 0 -4
7 -8 16 -8 21 0 226 -69 241 -82 7 -6 10 -15 6 -21 -3 -6 -6 -29 -5 -51 1 -23
4 -124 6 -226 3 -102 8 -216 10 -255 20 -275 23 -300 26 -300 1 0 3 -27 5 -61
l3 -61 -52 4 c-134 12 -851 -2 -851 -16 0 -1 -29 -4 -65 -6 -36 -3 -78 -7 -95
-9 -16 -3 -55 -8 -85 -11 -53 -5 -114 -13 -155 -21 -11 -2 -38 -6 -60 -9 -48
-6 -94 -14 -115 -20 -8 -3 -33 -7 -55 -11 -22 -3 -43 -8 -46 -10 -8 -5 -78
-17 -101 -18 -10 0 -18 -5 -18 -10 0 -5 -3 -7 -6 -3 -3 3 -27 -1 -52 -9 -26
-8 -58 -17 -71 -20 -13 -3 -32 -9 -41 -14 -10 -5 -21 -6 -25 -2 -5 4 -5 2 -2
-4 4 -7 -3 -14 -16 -18 -35 -10 -86 -63 -103 -106 -3 -8 -9 -22 -14 -31 -5 -9
-7 -47 -5 -85 4 -83 6 -94 17 -94 4 0 8 -6 8 -14 0 -22 71 -90 115 -111 57
-26 141 -26 224 1 38 12 82 25 97 28 16 3 72 14 124 25 179 37 355 63 525 76
39 3 87 8 108 10 21 3 102 7 180 11 78 3 156 7 172 8 17 2 38 -1 48 -6 9 -5
17 -5 17 -1 0 5 35 7 78 6 85 -3 92 -3 125 -1 32 1 269 -11 272 -14 2 -2 6
-19 9 -38 3 -19 10 -57 16 -85 6 -27 13 -59 15 -70 2 -11 15 -69 30 -130 14
-60 28 -121 31 -135 2 -14 7 -32 11 -40 3 -8 9 -31 13 -50 9 -40 38 -148 45
-168 2 -7 5 -16 6 -20 1 -4 6 -18 11 -32 5 -14 11 -33 13 -43 4 -20 24 -81 35
-112 19 -48 19 -55 2 -56 -9 -1 -33 -3 -52 -4 -19 -2 -35 -4 -35 -5 0 -2 -23
-7 -70 -14 -23 -4 -50 -8 -60 -10 -11 -2 -40 -7 -65 -11 -54 -9 -71 -12 -135
-25 -27 -5 -66 -12 -85 -15 -19 -4 -55 -11 -80 -16 -70 -16 -83 -19 -120 -25
-19 -3 -40 -10 -46 -15 -6 -5 -13 -6 -16 -4 -3 3 -17 1 -32 -5 -15 -5 -37 -12
-49 -14 -40 -7 -111 -27 -207 -59 -52 -17 -98 -30 -102 -29 -5 1 -8 -3 -8 -8
0 -6 -7 -10 -16 -10 -22 0 -96 -45 -122 -74 -89 -104 -85 -255 9 -346 91 -86
160 -91 349 -26 72 25 130 43 130 40 0 -4 7 -1 15 6 8 7 15 9 15 5 0 -4 7 -2
15 5 8 7 15 10 15 7 0 -3 33 4 73 14 39 11 81 21 92 23 11 2 29 6 40 9 11 3
36 9 55 12 19 3 62 12 95 19 33 8 92 19 132 26 88 14 108 18 108 20 0 1 14 3
30 5 46 4 126 16 170 25 22 4 47 8 55 8 8 0 36 4 63 7 31 5 47 3 48 -4 3 -23
13 -47 60 -146 18 -38 34 -72 34 -75 2 -14 111 -225 118 -228 4 -2 7 -12 7
-23 0 -10 5 -19 10 -19 6 0 10 -4 10 -10 0 -5 23 -48 50 -96 28 -48 50 -91 50
-95 0 -5 4 -9 8 -9 4 0 13 -12 19 -27 13 -29 34 -64 44 -73 3 -3 8 -12 11 -20
5 -14 148 -233 166 -255 4 -5 23 -32 42 -60 18 -27 36 -52 39 -55 3 -3 22 -27
40 -55 19 -27 38 -52 41 -55 3 -3 27 -32 52 -65 25 -33 54 -70 64 -82 11 -12
35 -41 54 -64 19 -24 43 -51 53 -61 9 -10 17 -20 17 -22 0 -16 385 -407 504
-511 43 -39 89 -79 102 -90 12 -12 37 -32 55 -45 18 -14 39 -32 48 -41 9 -9
47 -39 85 -68 37 -28 74 -57 82 -64 29 -26 43 -37 48 -37 5 0 78 -53 119 -86
9 -8 22 -14 27 -14 6 0 10 -4 10 -9 0 -5 14 -14 30 -21 17 -7 30 -16 30 -21 0
-5 5 -9 11 -9 6 0 28 -13 49 -30 21 -16 41 -30 44 -30 8 0 69 -42 77 -53 3 -5
9 -7 12 -5 4 1 15 -5 27 -14 11 -10 20 -15 20 -12 0 3 19 -8 43 -24 23 -16 49
-32 57 -35 8 -4 31 -17 50 -29 19 -11 61 -34 92 -49 31 -16 60 -34 63 -39 4
-6 10 -8 15 -5 5 3 16 -2 24 -11 9 -8 16 -13 16 -9 0 3 13 -3 29 -14 16 -12
36 -21 44 -21 8 0 20 -7 27 -15 7 -8 16 -15 21 -15 5 0 44 -16 86 -36 130 -61
167 -77 181 -80 7 -1 24 -9 37 -18 13 -9 28 -16 33 -16 5 0 27 -8 48 -17 22
-9 41 -17 44 -18 3 -1 19 -7 35 -14 17 -6 55 -21 85 -32 30 -12 64 -25 75 -29
48 -20 141 -53 155 -54 8 -1 25 -8 37 -14 13 -7 23 -10 23 -7 0 3 9 1 20 -5
22 -12 286 -93 340 -105 19 -4 41 -12 48 -17 6 -6 12 -8 12 -5 0 3 15 1 33 -4
35 -11 57 -17 127 -34 8 -2 15 -4 15 -5 0 -2 36 -10 74 -16 19 -2 38 -7 43
-10 8 -5 92 -25 163 -39 20 -4 139 -29 185 -40 14 -3 39 -7 55 -10 17 -3 44
-8 60 -12 17 -3 40 -8 53 -9 12 -2 32 -6 45 -8 88 -18 275 -48 402 -66 44 -6
96 -13 115 -16 69 -11 86 -13 175 -24 111 -14 152 -18 235 -25 36 -3 79 -8 97
-10 18 -3 63 -7 100 -10 37 -3 88 -7 113 -10 25 -3 77 -7 115 -10 39 -3 99 -7
135 -10 61 -5 160 -11 345 -21 560 -30 1463 -34 1965 -8 221 11 261 13 330 18
124 9 222 16 270 21 25 2 74 7 110 10 36 3 81 8 100 10 19 2 64 7 100 11 36 3
76 7 90 9 14 2 48 6 75 9 55 6 112 14 165 22 19 2 49 6 65 8 17 3 44 7 60 9
17 3 53 8 80 12 28 4 59 9 70 11 11 2 36 6 55 9 19 3 76 13 125 22 50 9 100
17 113 17 12 0 22 3 22 7 0 4 8 6 18 4 9 -1 21 0 27 3 5 3 16 7 25 8 42 5 176
32 200 41 8 3 24 7 35 8 11 2 32 6 48 9 15 3 37 8 50 10 12 2 49 11 82 20 33
9 71 19 84 22 14 3 74 18 135 35 136 37 141 38 165 43 11 3 28 9 38 14 10 6
21 10 26 10 16 1 72 15 82 20 11 7 32 12 53 14 6 1 12 6 12 11 0 6 3 8 6 5 5
-5 173 47 224 69 8 3 22 7 30 9 34 7 398 150 535 210 22 10 42 18 45 19 25 5
370 177 505 250 66 36 132 71 148 78 15 6 27 15 27 19 0 4 5 8 10 8 13 0 374
221 378 232 2 4 8 8 13 8 7 0 107 65 144 93 5 4 53 38 105 74 101 72 99 70
145 109 17 13 45 34 63 45 17 11 32 25 32 30 0 5 6 9 14 9 8 0 21 8 28 18 7 9
24 25 38 34 14 9 43 32 65 52 22 19 45 39 50 43 85 65 462 434 555 543 25 29
59 67 75 84 17 18 42 47 57 66 14 19 42 53 62 75 20 22 36 43 36 47 0 4 6 13
13 20 72 72 477 672 477 706 0 4 11 24 25 45 14 20 22 37 18 37 -4 0 -3 4 2 8
16 12 125 223 125 242 0 6 5 10 10 10 6 0 10 4 10 9 0 6 18 49 41 98 23 48 49
108 59 133 10 25 26 63 36 85 10 22 18 42 19 45 0 3 3 10 6 15 4 6 12 28 19
50 7 22 16 45 20 50 4 6 17 39 29 75 33 99 12 92 186 64 22 -4 51 -8 65 -9 23
-2 51 -7 125 -21 17 -3 39 -7 50 -8 18 -2 68 -11 130 -22 11 -2 34 -7 50 -10
17 -4 39 -8 50 -10 11 -1 20 -3 20 -4 0 -1 9 -3 20 -5 101 -19 123 -23 190
-40 33 -9 71 -17 85 -20 40 -6 84 -16 100 -22 8 -3 20 -7 25 -8 6 -2 30 -8 55
-16 25 -7 50 -13 55 -15 6 -1 32 -10 58 -19 160 -55 328 47 341 209 9 100 -46
202 -133 245 -34 17 -152 56 -251 81 -25 7 -52 15 -60 18 -8 2 -22 6 -30 7
-19 3 -52 10 -115 25 -27 6 -59 14 -70 16 -11 2 -31 6 -45 10 -14 3 -38 7 -55
10 -16 3 -37 8 -45 11 -8 3 -26 7 -40 9 -14 2 -36 5 -50 8 -14 3 -41 8 -60 11
-33 6 -56 10 -105 20 -11 2 -38 6 -60 10 -22 3 -47 7 -55 10 -8 2 -35 6 -60 9
-25 3 -54 8 -65 10 -11 2 -44 7 -72 11 -29 4 -53 9 -53 12 0 2 11 48 25 102
14 54 27 116 31 137 3 22 8 42 10 45 4 7 32 142 39 194 4 22 9 49 12 60 4 11
7 29 8 40 1 11 5 34 8 50 4 17 9 53 13 80 3 28 8 59 10 70 2 11 7 43 10 70 3
28 9 53 12 57 8 8 48 15 125 23 26 2 62 6 80 9 47 8 123 16 186 21 31 3 74 7
96 10 22 2 69 7 105 10 36 3 88 7 115 10 106 9 327 18 495 19 96 1 181 5 188
9 6 5 12 6 12 2 0 -11 76 33 104 61 68 68 89 188 49 284 -17 40 -82 100 -132
122 -41 18 -67 21 -241 21 -160 1 -475 -8 -475 -14 0 -2 -37 -5 -140 -14 -157
-13 -262 -23 -315 -30 -19 -3 -60 -7 -90 -9 -30 -3 -63 -7 -72 -11 -35 -14
-49 1 -43 46 4 23 8 150 10 283 2 133 4 246 5 251 1 6 2 12 1 15 -1 3 -4 85
-7 183 -2 98 -6 189 -8 203 -3 17 1 27 17 36 12 7 25 11 30 10 4 -1 7 2 7 8 0
5 4 10 10 10 5 0 60 23 122 51 62 28 129 57 148 65 19 8 42 19 51 23 8 5 69
30 135 55 65 26 133 52 149 59 17 6 33 11 38 9 4 -1 7 2 7 6 0 5 6 9 13 9 6 0
39 9 72 21 82 29 193 60 235 67 153 25 244 130 234 269 -4 59 -34 130 -66 154
-9 7 -23 19 -30 26 -53 52 -162 64 -288 31 -36 -9 -72 -18 -80 -19 -15 -2
-173 -52 -200 -63 -8 -3 -19 -7 -25 -9 -17 -5 -88 -32 -120 -45 -16 -7 -34
-13 -40 -15 -5 -1 -44 -17 -85 -34 -41 -17 -79 -33 -85 -34 -5 -1 -31 -12 -57
-24 -71 -33 -102 -45 -110 -44 -5 1 -8 -3 -8 -9 0 -5 -4 -8 -8 -5 -4 2 -31 -8
-58 -23 -28 -15 -51 -23 -51 -17 -1 6 -4 29 -7 51 -4 22 -9 58 -11 80 -2 22
-6 56 -9 75 -3 19 -8 49 -10 65 -13 103 -18 143 -22 165 -5 27 -9 50 -25 145
-5 33 -14 80 -19 105 -6 25 -24 115 -41 200 -17 85 -37 177 -44 203 -8 27 -14
52 -14 55 1 4 0 9 -1 12 -1 3 -3 12 -5 20 -1 8 -12 51 -24 96 -12 44 -24 89
-26 100 -2 10 -4 19 -5 19 -1 0 -3 8 -6 18 -17 72 -101 350 -120 397 -8 19
-26 73 -40 120 -14 47 -29 90 -33 95 -4 6 -13 28 -20 50 -7 22 -16 49 -21 60
-5 11 -25 63 -45 115 -20 52 -43 109 -50 125 -7 17 -24 56 -38 87 -14 31 -23
59 -19 62 3 3 1 6 -5 6 -16 0 -36 84 -27 111 4 13 9 29 10 34 1 6 12 48 24 95
12 47 24 92 25 100 2 8 4 15 5 15 2 0 9 32 13 60 2 11 6 27 10 35 3 8 16 60
28 115 13 55 24 105 25 110 2 6 6 23 9 39 3 15 13 58 21 95 9 36 18 77 20 91
3 14 7 32 9 40 6 21 17 82 18 98 0 6 4 12 9 12 5 0 7 4 4 8 -3 5 1 35 9 68 7
32 25 123 40 201 31 171 33 181 40 213 3 14 8 42 11 64 3 21 8 48 11 60 2 11
6 30 7 41 1 11 6 38 10 60 3 22 9 54 11 70 2 17 9 57 14 90 10 57 13 78 27
185 7 51 12 75 14 75 1 0 3 14 4 30 3 34 25 207 32 245 2 14 6 50 9 80 3 30 8
70 11 89 2 18 7 59 9 90 3 31 8 72 11 91 3 19 7 64 10 100 2 36 6 81 9 100 4
33 7 70 21 240 3 41 8 78 10 82 3 4 -1 8 -8 8 -8 0 -9 3 -3 8 10 7 13 32 17
179 2 46 7 83 11 83 4 0 3 8 -2 19 -6 10 -8 21 -4 24 7 8 16 323 16 632 1 334
-16 759 -37 965 -3 25 -7 77 -10 117 -3 39 -8 86 -10 105 -9 64 -21 170 -30
253 -3 28 -6 50 -7 50 -1 0 -3 12 -4 26 -4 29 -44 269 -52 309 -2 14 -6 34 -8
45 -3 20 -9 47 -20 95 -3 14 -8 39 -11 55 -3 17 -9 48 -15 70 -5 22 -12 51
-15 65 -5 27 -42 167 -69 265 -22 81 -104 324 -121 356 -7 15 -10 29 -7 33 4
3 2 6 -4 6 -5 0 -10 6 -10 13 0 14 -102 227 -150 312 -15 28 -36 58 -47 68
-10 9 -16 17 -12 17 16 0 -109 113 -158 143 -28 18 -53 31 -56 30 -3 -1 -20 7
-37 18 -18 11 -43 21 -55 23 -13 1 -33 8 -45 15 -13 6 -23 10 -23 7 0 -3 -15
0 -32 5 -31 10 -281 22 -289 15z"/>
</g>
</svg>
